<svg width="25" height="11" viewBox="0 0 25 11" fill="none" xmlns="http://www.w3.org/2000/svg">
<g clip-path="url(#clip0_15279_5987)">
<path d="M0.567239 10.2475C1.03679 9.4786 1.51024 8.73379 1.96968 7.97886C2.42912 7.22393 2.87846 6.48301 3.3379 5.72809C3.348 5.71408 3.35811 5.70007 3.36822 5.68606C3.64732 5.26967 3.63261 5.40817 3.36553 4.98116C2.47242 3.59125 1.57932 2.20135 0.686214 0.811446C0.640282 0.757006 0.604458 0.688557 0.568634 0.620107C0.976324 0.616013 1.3739 0.625927 1.75748 0.625735C3.61309 0.62247 5.4586 0.633214 7.31422 0.62995C8.31633 0.628668 9.17624 0.972131 9.92425 1.6183C10.2683 1.90912 10.5315 2.31201 10.811 2.66276C11.1543 3.10218 11.4937 3.51748 11.827 3.97091C11.9048 4.06968 11.985 4.10621 12.1095 4.11082C13.7558 4.19091 15.3921 4.28501 17.0244 4.35499C19.4076 4.47673 21.7908 4.59846 24.174 4.72019C24.6237 4.74642 24.9475 5.06525 24.9275 5.47685C24.9215 5.89855 24.6128 6.20836 24.1709 6.23036C22.2344 6.34571 20.3119 6.47116 18.3895 6.59661C16.3184 6.72135 14.2613 6.85621 12.1903 6.98096C11.9071 6.98966 11.7157 7.10724 11.5641 7.31738C11.166 7.83965 10.7679 8.36191 10.3659 8.86005C9.58835 9.7902 8.59193 10.2855 7.36886 10.2978C5.69998 10.308 4.0412 10.3041 2.36841 10.2902C1.81212 10.2936 1.27994 10.2931 0.723647 10.2965C0.67151 10.2802 0.623278 10.288 0.567239 10.2475Z" fill="#FFA239"/>
</g>
<defs>
<clipPath id="clip0_15279_5987">
<rect width="25" height="11" fill="white"/>
</clipPath>
</defs>
</svg>
